<svg xmlns="http://www.w3.org/2000/svg" viewBox="0 0 64 64" role="img" aria-labelledby="title">
  <title>Premium Geometric Four Leaf Clover Logo</title>
  <defs>
    <!-- Vibrant and modern gradient for each leaf -->
    <linearGradient id="leaf-grad" x1="0" y1="1" x2="1" y2="0">
      <stop offset="0%" stop-color="#05b5fe" />   <!-- Deep Electric Cyan -->
      <stop offset="35%" stop-color="#2ee878" />  <!-- Vibrant Neon Green -->
      <stop offset="100%" stop-color="#c8ff4f" /> <!-- Bright Golden Lime -->
    </linearGradient>
    
    <!-- Smooth gradient for the elegant curved stem -->
    <linearGradient id="stem-grad" x1="0" y1="0" x2="1" y2="1">
      <stop offset="0%" stop-color="#2ee878" />
      <stop offset="100%" stop-color="#0a5c43" />
    </linearGradient>

    <!-- Glowing filter to make the logo pop off the dark background -->
    <filter id="premium-glow" x="-40%" y="-40%" width="180%" height="180%">
      <feGaussianBlur stdDeviation="2.8" result="blur"/>
      <feColorMatrix type="matrix" values="1 0 0 0 0  0 1 0 0 0  0 0 1 0 0  0 0 0 0.5 0" result="coloredBlur"/>
      <feMerge>
        <feMergeNode in="coloredBlur"/>
        <feMergeNode in="SourceGraphic"/>
      </feMerge>
    </filter>

    <!-- Symmetrical heart-shaped leaf path -->
    <path id="heart-leaf" d="M 32,32 C 24.5,24.5 17.5,25 17.5,17 C 17.5,9 24.5,7 32,16 C 39.5,7 46.5,9 46.5,17 C 46.5,25 39.5,24.5 32,32 Z" />
  </defs>

  <!-- Glowing background elements for extra premium depth -->
  <g filter="url(#premium-glow)">
    <!-- Elegant curved stem -->
    <path d="M 32,32 C 32,46 26.5,55 16.5,58" fill="none" stroke="url(#stem-grad)" stroke-width="4" stroke-linecap="round"/>
    
    <!-- The four symmetric clover leaves -->
    <use href="#heart-leaf" transform="rotate(0 32 32)" fill="url(#leaf-grad)"/>
    <use href="#heart-leaf" transform="rotate(90 32 32)" fill="url(#leaf-grad)"/>
    <use href="#heart-leaf" transform="rotate(180 32 32)" fill="url(#leaf-grad)"/>
    <use href="#heart-leaf" transform="rotate(270 32 32)" fill="url(#leaf-grad)"/>
    
    <!-- Sparkly crystal center -->
    <circle cx="32" cy="32" r="3.2" fill="#ffffff" />
    <circle cx="32" cy="32" r="1.5" fill="#ecfeff" />
  </g>
</svg>
