<svg xmlns="http://www.w3.org/2000/svg" viewBox="0 0 64 64" role="img" aria-labelledby="title">
  <title>Green four leaf clover</title>
  <g fill="#34d399">
    <path d="M30 27C21 16 8 18 8 28c0 8 10 12 22 1z"/>
    <path d="M34 27c9-11 22-9 22 1 0 8-10 12-22 1z"/>
    <path d="M30 37C21 48 8 46 8 36c0-8 10-12 22-1z"/>
    <path d="M34 37c9 11 22 9 22-1 0-8-10-12-22-1z"/>
  </g>
  <path d="M32 34c2 8 1 15-6 22" fill="none" stroke="#22c55e" stroke-width="5" stroke-linecap="round"/>
  <circle cx="32" cy="32" r="5" fill="#86efac"/>
</svg>
